REM DIRINDEX 1\3,1\2\4,1\2\5,1\2\6
REM DIRNAME folder01,folder02,folder03,folder04,folder05,folder06
TITLE ""
FILE "127.mp3" MP3
  TRACK 01 AUDIO
    TITLE "4:cjc137_5245"
    INDEX 01 00:00:00
  TRACK 02 AUDIO
    TITLE "0:"
    INDEX 01 00:01:07
  TRACK 03 AUDIO
    TITLE "6:cjc137_5246"
    INDEX 01 00:01:13
  TRACK 04 AUDIO
    TITLE "0:"
    INDEX 01 00:02:20
  TRACK 05 AUDIO
    TITLE "5:cjc137_5247"
    INDEX 01 00:02:28
  TRACK 06 AUDIO
    TITLE "0:"
    INDEX 01 00:03:31
  TRACK 07 AUDIO
    TITLE "4:cjc137_5248"
    INDEX 01 00:04:42
  TRACK 08 AUDIO
    TITLE "0:"
    INDEX 01 00:05:42
  TRACK 09 AUDIO
    TITLE "6:cjc137_5249"
    INDEX 01 00:05:50
  TRACK 10 AUDIO
    TITLE "0:"
    INDEX 01 00:06:51
  TRACK 11 AUDIO
    TITLE "5:cjc137_5250"
    INDEX 01 00:06:59
  TRACK 12 AUDIO
    TITLE "0:"
    INDEX 01 00:07:62
  TRACK 13 AUDIO
    TITLE "4:cjc137_5251"
    INDEX 01 00:08:70
  TRACK 14 AUDIO
    TITLE "0:"
    INDEX 01 00:10:06
  TRACK 15 AUDIO
    TITLE "6:cjc137_5252"
    INDEX 01 00:10:14
  TRACK 16 AUDIO
    TITLE "0:"
    INDEX 01 00:11:17
  TRACK 17 AUDIO
    TITLE "5:cjc137_5253"
    INDEX 01 00:11:23
  TRACK 18 AUDIO
    TITLE "0:"
    INDEX 01 00:12:36
  TRACK 19 AUDIO
    TITLE "4:cjc137_5254"
    INDEX 01 00:13:41
  TRACK 20 AUDIO
    TITLE "0:"
    INDEX 01 00:14:70
  TRACK 21 AUDIO
    TITLE "6:cjc137_5255"
    INDEX 01 00:15:01
  TRACK 22 AUDIO
    TITLE "0:"
    INDEX 01 00:16:51
  TRACK 23 AUDIO
    TITLE "5:cjc137_5256"
    INDEX 01 00:16:55
  TRACK 24 AUDIO
    TITLE "0:"
    INDEX 01 00:18:09
  TRACK 25 AUDIO
    TITLE "4:cjc137_5257"
    INDEX 01 00:19:15
  TRACK 26 AUDIO
    TITLE "0:"
    INDEX 01 00:20:22
  TRACK 27 AUDIO
    TITLE "6:cjc137_5258"
    INDEX 01 00:20:28
  TRACK 28 AUDIO
    TITLE "0:"
    INDEX 01 00:21:41
  TRACK 29 AUDIO
    TITLE "5:cjc137_5259"
    INDEX 01 00:21:45
  TRACK 30 AUDIO
    TITLE "0:"
    INDEX 01 00:22:56
  TRACK 31 AUDIO
    TITLE "4:cjc137_5260"
    INDEX 01 00:23:59
  TRACK 32 AUDIO
    TITLE "0:"
    INDEX 01 00:24:69
  TRACK 33 AUDIO
    TITLE "6:cjc137_5261"
    INDEX 01 00:25:13
  TRACK 34 AUDIO
    TITLE "0:"
    INDEX 01 00:26:38
  TRACK 35 AUDIO
    TITLE "5:cjc137_5262"
    INDEX 01 00:26:44
  TRACK 36 AUDIO
    TITLE "0:"
    INDEX 01 00:27:55
  TRACK 37 AUDIO
    TITLE "4:cjc137_5263"
    INDEX 01 00:28:72
  TRACK 38 AUDIO
    TITLE "0:"
    INDEX 01 00:30:18
  TRACK 39 AUDIO
    TITLE "6:cjc137_5264"
    INDEX 01 00:30:32
  TRACK 40 AUDIO
    TITLE "0:"
    INDEX 01 00:32:00
  TRACK 41 AUDIO
    TITLE "5:cjc137_5265"
    INDEX 01 00:32:05
  TRACK 42 AUDIO
    TITLE "0:"
    INDEX 01 00:33:28
  TRACK 43 AUDIO
    TITLE "4:cjc137_5266"
    INDEX 01 00:34:43
  TRACK 44 AUDIO
    TITLE "0:"
    INDEX 01 00:35:74
  TRACK 45 AUDIO
    TITLE "6:cjc137_5267"
    INDEX 01 00:36:03
  TRACK 46 AUDIO
    TITLE "0:"
    INDEX 01 00:37:20
  TRACK 47 AUDIO
    TITLE "5:cjc137_5268"
    INDEX 01 00:37:26
  TRACK 48 AUDIO
    TITLE "0:"
    INDEX 01 00:38:57
  TRACK 49 AUDIO
    TITLE "4:cjc137_5269"
    INDEX 01 00:39:62
  TRACK 50 AUDIO
    TITLE "0:"
    INDEX 01 00:40:66
  TRACK 51 AUDIO
    TITLE "6:cjc137_5270"
    INDEX 01 00:40:73
  TRACK 52 AUDIO
    TITLE "0:"
    INDEX 01 00:42:39
  TRACK 53 AUDIO
    TITLE "5:cjc137_5271"
    INDEX 01 00:42:43
  TRACK 54 AUDIO
    TITLE "0:"
    INDEX 01 00:43:48
  TRACK 55 AUDIO
    TITLE "4:cjc137_5272"
    INDEX 01 00:44:56
  TRACK 56 AUDIO
    TITLE "0:"
    INDEX 01 00:46:11
  TRACK 57 AUDIO
    TITLE "6:cjc137_5273"
    INDEX 01 00:46:15
  TRACK 58 AUDIO
    TITLE "0:"
    INDEX 01 00:47:23
  TRACK 59 AUDIO
    TITLE "5:cjc137_5274"
    INDEX 01 00:47:28
  TRACK 60 AUDIO
    TITLE "0:"
    INDEX 01 00:48:61
  TRACK 61 AUDIO
    TITLE "4:cjc137_5275"
    INDEX 01 00:49:69
  TRACK 62 AUDIO
    TITLE "0:"
    INDEX 01 00:51:42
  TRACK 63 AUDIO
    TITLE "6:cjc137_5276"
    INDEX 01 00:51:46
  TRACK 64 AUDIO
    TITLE "0:"
    INDEX 01 00:53:23
  TRACK 65 AUDIO
    TITLE "5:cjc137_5277"
    INDEX 01 00:53:29
  TRACK 66 AUDIO
    TITLE "0:"
    INDEX 01 00:55:03
  TRACK 67 AUDIO
    TITLE "4:cjc137_5278"
    INDEX 01 00:56:08
  TRACK 68 AUDIO
    TITLE "0:"
    INDEX 01 00:57:37
  TRACK 69 AUDIO
    TITLE "6:cjc137_5279"
    INDEX 01 00:57:45
  TRACK 70 AUDIO
    TITLE "0:"
    INDEX 01 00:59:18
  TRACK 71 AUDIO
    TITLE "5:cjc137_5280"
    INDEX 01 00:59:20
  TRACK 72 AUDIO
    TITLE "0:"
    INDEX 01 01:00:47
  TRACK 73 AUDIO
    TITLE "4:cjc137_5281"
    INDEX 01 01:01:60
  TRACK 74 AUDIO
    TITLE "0:"
    INDEX 01 01:03:00
  TRACK 75 AUDIO
    TITLE "6:cjc137_5282"
    INDEX 01 01:03:12
  TRACK 76 AUDIO
    TITLE "0:"
    INDEX 01 01:04:62
  TRACK 77 AUDIO
    TITLE "5:cjc137_5283"
    INDEX 01 01:04:70
  TRACK 78 AUDIO
    TITLE "0:"
    INDEX 01 01:06:12
  TRACK 79 AUDIO
    TITLE "4:cjc137_5284"
    INDEX 01 01:07:25
  TRACK 80 AUDIO
    TITLE "0:"
    INDEX 01 01:08:42
  TRACK 81 AUDIO
    TITLE "6:cjc137_5285"
    INDEX 01 01:08:46
  TRACK 82 AUDIO
    TITLE "0:"
    INDEX 01 01:10:02
  TRACK 83 AUDIO
    TITLE "5:cjc137_5286"
    INDEX 01 01:10:08
  TRACK 84 AUDIO
    TITLE "0:"
    INDEX 01 01:11:25
  TRACK 85 AUDIO
    TITLE "4:cjc137_5287"
    INDEX 01 01:12:30
  TRACK 86 AUDIO
    TITLE "0:"
    INDEX 01 01:13:49
  TRACK 87 AUDIO
    TITLE "6:cjc137_5288"
    INDEX 01 01:13:55
  TRACK 88 AUDIO
    TITLE "0:"
    INDEX 01 01:14:57
  TRACK 89 AUDIO
    TITLE "5:cjc137_5289"
    INDEX 01 01:14:63
  TRACK 90 AUDIO
    TITLE "0:"
    INDEX 01 01:16:03
  TRACK 91 AUDIO
    TITLE "4:cjc137_5290"
    INDEX 01 01:17:12
  TRACK 92 AUDIO
    TITLE "0:"
    INDEX 01 01:18:39
  TRACK 93 AUDIO
    TITLE "6:cjc137_5291"
    INDEX 01 01:18:45
  TRACK 94 AUDIO
    TITLE "0:"
    INDEX 01 01:19:72
  TRACK 95 AUDIO
    TITLE "5:cjc137_5292"
    INDEX 01 01:20:02
  TRACK 96 AUDIO
    TITLE "0:"
    INDEX 01 01:21:31
  TRACK 97 AUDIO
    TITLE "4:cjc137_5293"
    INDEX 01 01:22:35
  TRACK 98 AUDIO
    TITLE "0:"
    INDEX 01 01:23:52
  TRACK 99 AUDIO
    TITLE "6:cjc137_5294"
    INDEX 01 01:23:58
  TRACK 100 AUDIO
    TITLE "0:"
    INDEX 01 01:24:67
  TRACK 101 AUDIO
    TITLE "5:cjc137_5295"
    INDEX 01 01:24:69
  TRACK 102 AUDIO
    TITLE "0:"
    INDEX 01 01:26:13
  TRACK 103 AUDIO
    TITLE "4:cjc137_5296"
    INDEX 01 01:27:18
  TRACK 104 AUDIO
    TITLE "0:"
    INDEX 01 01:28:27
  TRACK 105 AUDIO
    TITLE "6:cjc137_5297"
    INDEX 01 01:28:31
  TRACK 106 AUDIO
    TITLE "0:"
    INDEX 01 01:29:39
  TRACK 107 AUDIO
    TITLE "5:cjc137_5298"
    INDEX 01 01:29:46
  TRACK 108 AUDIO
    TITLE "0:"
    INDEX 01 01:30:52
  TRACK 109 AUDIO
    TITLE "4:cjc137_5299"
    INDEX 01 01:31:59
  TRACK 110 AUDIO
    TITLE "0:"
    INDEX 01 01:32:66
  TRACK 111 AUDIO
    TITLE "6:cjc137_5300"
    INDEX 01 01:32:72
  TRACK 112 AUDIO
    TITLE "0:"
    INDEX 01 01:34:16
  TRACK 113 AUDIO
    TITLE "5:cjc137_5301"
    INDEX 01 01:34:20
  TRACK 114 AUDIO
    TITLE "0:"
    INDEX 01 01:35:27
  TRACK 115 AUDIO
    TITLE "4:cjc137_5302"
    INDEX 01 01:36:37
  TRACK 116 AUDIO
    TITLE "0:"
    INDEX 01 01:37:46
  TRACK 117 AUDIO
    TITLE "6:cjc137_5303"
    INDEX 01 01:37:52
  TRACK 118 AUDIO
    TITLE "0:"
    INDEX 01 01:38:71
  TRACK 119 AUDIO
    TITLE "5:cjc137_5304"
    INDEX 01 01:39:00
  TRACK 120 AUDIO
    TITLE "0:"
    INDEX 01 01:40:11
